<svg width="40" height="40" viewBox="0 0 40 40" fill="none" xmlns="http://www.w3.org/2000/svg">
<path d="M30.625 3.75005C29.4883 3.7507 28.3644 3.98878 27.3251 4.44903C26.3898 3.44005 25.2562 2.6351 23.9954 2.08462C22.7345 1.53414 21.3735 1.25 19.9978 1.25C18.622 1.25 17.261 1.53414 16.0002 2.08462C14.7393 2.6351 13.6057 3.44005 12.6704 4.44903C11.6447 3.99412 10.5359 3.75658 9.41386 3.75138C8.29181 3.74618 7.18084 3.97343 6.15095 4.41882C5.12106 4.8642 4.19458 5.51806 3.42989 6.3392C2.66519 7.16035 2.07885 8.13097 1.70782 9.18992C1.33679 10.2489 1.1891 11.3732 1.27406 12.492C1.35902 13.6109 1.6748 14.7 2.20148 15.6908C2.72817 16.6815 3.45435 17.5525 4.33427 18.2488C5.2142 18.945 6.22879 19.4515 7.31412 19.7362L9.37498 31.9275V38.125C9.37498 38.2908 9.44083 38.4498 9.55804 38.567C9.67525 38.6842 9.83422 38.75 9.99998 38.75H30C30.1657 38.75 30.3247 38.6842 30.4419 38.567C30.5591 38.4498 30.625 38.2908 30.625 38.125V31.9275L32.6858 19.7362C34.5962 19.235 36.2586 18.0553 37.3624 16.4175C38.4661 14.7797 38.9356 12.796 38.6831 10.8372C38.4305 8.87838 37.4733 7.0786 35.9903 5.77427C34.5073 4.46995 32.6 3.75037 30.625 3.75005ZM29.375 37.5H10.625V32.5H29.375V37.5ZM32.0133 18.6099C31.8899 18.6352 31.777 18.6972 31.6894 18.7879C31.6018 18.8785 31.5437 18.9935 31.5226 19.1177L29.4718 31.25H25.6712L26.2483 23.1696H26.2477C26.2488 23.1548 26.25 23.1401 26.25 23.1251C26.2479 22.9646 26.1842 22.8111 26.072 22.6963C25.9598 22.5815 25.8077 22.5143 25.6473 22.5086C25.4869 22.5029 25.3304 22.5591 25.2103 22.6656C25.0903 22.7721 25.0157 22.9207 25.0022 23.0807H25.0016L24.418 31.25H20.625V24.375C20.625 24.2093 20.5591 24.0503 20.4419 23.9331C20.3247 23.8159 20.1657 23.75 20 23.75C19.8342 23.75 19.6752 23.8159 19.558 23.9331C19.4408 24.0503 19.375 24.2093 19.375 24.375V31.25H15.5819L14.9983 23.0805H14.9977C14.9842 22.9206 14.9097 22.772 14.7896 22.6655C14.6695 22.559 14.513 22.5028 14.3526 22.5085C14.1922 22.5142 14.0402 22.5814 13.928 22.6962C13.8158 22.811 13.752 22.9646 13.75 23.125C13.75 23.1401 13.7512 23.1547 13.7522 23.1695H13.7516L14.3287 31.25H10.5282L8.47732 19.1179C8.45626 18.9937 8.39813 18.8787 8.31056 18.7881C8.22299 18.6975 8.11007 18.6354 7.98662 18.6101C6.71298 18.3477 5.53987 17.7294 4.60344 16.8271C3.66702 15.9248 3.00568 14.7754 2.69617 13.5124C2.38665 12.2494 2.44167 10.9245 2.85482 9.69143C3.26797 8.45841 4.02232 7.36782 5.03032 6.54625C6.03832 5.72467 7.25864 5.2058 8.54966 5.04983C9.84068 4.89387 11.1495 5.10723 12.3241 5.66513C13.4987 6.22303 14.4911 7.1026 15.186 8.20178C15.8809 9.30095 16.2498 10.5746 16.25 11.8751C16.25 12.0408 16.3158 12.1998 16.433 12.317C16.5502 12.4342 16.7092 12.5001 16.875 12.5001C17.0407 12.5001 17.1997 12.4342 17.3169 12.317C17.4341 12.1998 17.5 12.0408 17.5 11.8751C17.4995 10.523 17.1615 9.19238 16.5167 8.00393C15.872 6.81547 14.9408 5.80672 13.8076 5.06911C14.889 3.98571 16.2356 3.2049 17.713 2.80461C19.1905 2.40432 20.7471 2.39856 22.2275 2.7879C23.7078 3.17724 25.0602 3.94807 26.1495 5.02343C27.2389 6.0988 28.0271 7.44108 28.4355 8.9163C28.4565 8.99641 28.4931 9.07157 28.5433 9.1374C28.5935 9.20323 28.6563 9.25843 28.7281 9.29978C28.7998 9.34114 28.879 9.36783 28.9612 9.37831C29.0433 9.38879 29.1267 9.38284 29.2065 9.36081C29.2863 9.33879 29.361 9.30112 29.4261 9.25C29.4912 9.19888 29.5456 9.13533 29.5859 9.06304C29.6263 8.99075 29.6519 8.91115 29.6612 8.82888C29.6706 8.74661 29.6635 8.66331 29.6404 8.5838C29.3305 7.46294 28.826 6.40532 28.1497 5.45927C28.9391 5.1536 29.7785 4.99787 30.625 5.00005C32.3277 5.00016 33.9698 5.63203 35.2333 6.77332C36.4969 7.91462 37.292 9.48415 37.4648 11.178C37.6376 12.8719 37.1758 14.5697 36.1687 15.9426C35.1616 17.3156 33.6809 18.266 32.0133 18.6099Z" fill="#219653"/>
</svg>
