<svg width="136" height="25" viewBox="0 0 136 25" fill="none" xmlns="http://www.w3.org/2000/svg">
<path d="M14.5244 18.103C13.865 18.5477 13.3744 18.9847 13.0524 19.414C12.7304 19.8433 12.4544 20.38 12.2244 21.024C12.071 20.38 11.7644 19.8203 11.3044 19.345C10.8597 18.8697 10.2924 18.4557 9.60237 18.103C9.74037 17.965 9.84004 17.7887 9.90137 17.574C9.97804 17.344 10.0317 17.0297 10.0624 16.631C10.1084 16.217 10.139 15.6957 10.1544 15.067C10.1697 14.4383 10.1927 13.6487 10.2234 12.698C10.1467 12.6673 9.9397 12.514 9.60237 12.238C9.28037 11.9467 8.92004 11.6247 8.52137 11.272L5.50837 13.158C5.5697 14.262 5.65404 15.32 5.76137 16.332C5.8687 17.3287 6.0297 18.2947 6.24437 19.23C5.8457 19.0307 5.48537 18.8927 5.16337 18.816C4.8567 18.7393 4.5577 18.701 4.26637 18.701C4.0057 18.701 3.74504 18.724 3.48437 18.77C3.23904 18.816 2.97837 18.8697 2.70237 18.931C2.4417 18.977 2.1657 19.023 1.87437 19.069C1.58304 19.115 1.26104 19.138 0.908371 19.138C0.831704 19.138 0.747371 19.138 0.655371 19.138C0.563371 19.138 0.479038 19.1303 0.402371 19.115C0.724371 18.9157 1.0157 18.655 1.27637 18.333C1.55237 17.9957 1.78237 17.6277 1.96637 17.229C2.1657 16.8303 2.31904 16.4087 2.42637 15.964C2.5337 15.5193 2.58737 15.0823 2.58737 14.653C2.58737 13.871 2.49537 13.112 2.31137 12.376C2.12737 11.6247 1.83604 11.0037 1.43737 10.513C1.8667 9.71567 2.15804 8.98733 2.31137 8.328C2.48004 7.66867 2.56437 6.98633 2.56437 6.281C2.56437 6.06633 2.5567 5.798 2.54137 5.476C2.54137 5.13867 2.52604 4.84733 2.49537 4.602C1.9587 4.44867 1.53704 4.188 1.23037 3.82C0.923705 3.43667 0.724371 2.80033 0.632371 1.911C0.893038 1.98767 1.12304 2.05667 1.32237 2.118C1.53704 2.17933 1.7517 2.233 1.96637 2.279C2.18104 2.325 2.4187 2.36333 2.67937 2.394C2.94004 2.40933 3.25437 2.417 3.62237 2.417C3.94437 2.417 4.19737 2.417 4.38137 2.417C4.5807 2.417 4.77237 2.40933 4.95637 2.394C5.14037 2.37867 5.34737 2.35567 5.57737 2.325C5.80737 2.279 6.11404 2.22533 6.49737 2.164C6.2367 2.60867 6.0297 3.05333 5.87637 3.498C5.73837 3.94267 5.63104 4.47933 5.55437 5.108C5.4777 5.73667 5.42404 6.50333 5.39337 7.408C5.37804 8.29733 5.3627 9.409 5.34737 10.743C5.8687 10.467 6.39004 10.145 6.91137 9.777C7.4327 9.39367 7.90037 9.02567 8.31437 8.673C8.72837 8.32033 9.0657 8.02133 9.32637 7.776C9.58704 7.53067 9.73271 7.39267 9.76337 7.362C9.76337 7.11667 9.78637 6.79467 9.83237 6.396C9.87837 5.982 9.90137 5.53733 9.90137 5.062C9.90137 4.832 9.88604 4.58667 9.85537 4.326C9.84004 4.06533 9.80171 3.81233 9.74037 3.567C9.67904 3.30633 9.5947 3.061 9.48737 2.831C9.38004 2.601 9.24204 2.40933 9.07337 2.256C9.25737 2.348 9.45671 2.42467 9.67137 2.486C9.90137 2.532 10.116 2.57033 10.3154 2.601C10.53 2.63167 10.714 2.65467 10.8674 2.67C11.036 2.67 11.151 2.67 11.2124 2.67C11.4424 2.67 11.657 2.624 11.8564 2.532C12.0557 2.44 12.2627 2.348 12.4774 2.256C12.692 2.14867 12.9297 2.049 13.1904 1.957C13.451 1.865 13.7577 1.819 14.1104 1.819H14.3634C14.1334 2.06433 13.934 2.348 13.7654 2.67C13.5967 2.97667 13.4587 3.30633 13.3514 3.659C13.2594 4.01167 13.1904 4.372 13.1444 4.74C13.0984 5.09267 13.0754 5.43767 13.0754 5.775C13.0754 6.26567 13.1137 6.741 13.1904 7.201C13.2824 7.64567 13.3974 8.04433 13.5354 8.397C13.4587 8.42767 13.336 8.48133 13.1674 8.558C12.9987 8.63467 12.7994 8.73433 12.5694 8.857C12.3394 8.97967 12.094 9.11767 11.8334 9.271C11.5727 9.42433 11.3044 9.57767 11.0284 9.731C11.2124 9.915 11.4194 10.0913 11.6494 10.26C11.8794 10.4287 12.117 10.5973 12.3624 10.766C12.623 10.9193 12.876 11.0727 13.1214 11.226C13.3667 11.3793 13.5967 11.525 13.8114 11.663C13.7347 11.8317 13.6734 12.123 13.6274 12.537C13.5967 12.951 13.5814 13.4263 13.5814 13.963C13.5814 14.3617 13.5967 14.768 13.6274 15.182C13.658 15.5807 13.7117 15.9717 13.7884 16.355C13.865 16.723 13.957 17.0603 14.0644 17.367C14.187 17.6737 14.3404 17.919 14.5244 18.103ZM19.8943 8.535V16.976C19.8943 17.942 20.1013 18.5017 20.5153 18.655V19C20.0247 19.0767 19.5647 19.1687 19.1353 19.276C18.706 19.3833 18.2613 19.506 17.8013 19.644H17.6863C17.165 18.9387 16.9043 18.1107 16.9043 17.16V9.156L16.0533 8.788V8.535C16.59 8.45833 17.1727 8.35867 17.8013 8.236C18.43 8.098 18.9897 7.96767 19.4803 7.845L19.8943 8.535ZM16.2603 4.05C16.521 3.60533 16.8353 3.16833 17.2033 2.739C17.5867 2.29433 18.0083 1.94933 18.4683 1.704C18.5603 1.82667 18.6983 1.97233 18.8823 2.141C19.0817 2.30967 19.2887 2.47833 19.5033 2.647C19.7333 2.81567 19.948 2.97667 20.1473 3.13C20.362 3.268 20.523 3.36767 20.6303 3.429C20.109 3.797 19.6643 4.15733 19.2963 4.51C18.9437 4.84733 18.637 5.27667 18.3763 5.798C18.2843 5.69067 18.1387 5.56033 17.9393 5.407C17.7553 5.23833 17.556 5.06967 17.3413 4.901C17.1267 4.73233 16.9197 4.57133 16.7203 4.418C16.521 4.26467 16.3677 4.142 16.2603 4.05ZM26.0042 10.444C26.6636 10.0147 27.2539 9.58533 27.7752 9.156C28.2966 8.72667 28.8332 8.22067 29.3852 7.638C29.6459 7.88333 29.8836 8.10567 30.0982 8.305C30.3129 8.489 30.5276 8.65767 30.7422 8.811C30.9722 8.96433 31.2099 9.11767 31.4552 9.271C31.7006 9.409 31.9842 9.55467 32.3062 9.708C32.2449 9.92267 32.1912 10.1527 32.1452 10.398C32.1146 10.628 32.0839 10.927 32.0532 11.295C32.0379 11.663 32.0226 12.1153 32.0072 12.652C31.9919 13.1887 31.9842 13.8557 31.9842 14.653C31.9842 15.3277 31.9842 15.8873 31.9842 16.332C31.9996 16.7613 32.0149 17.114 32.0302 17.39C32.0456 17.666 32.0686 17.896 32.0992 18.08C32.1299 18.2487 32.1606 18.4097 32.1912 18.563C31.8846 18.6703 31.5702 18.816 31.2482 19C30.9416 19.184 30.6272 19.391 30.3052 19.621C29.9986 19.851 29.7072 20.0887 29.4312 20.334C29.1552 20.5793 28.9099 20.817 28.6952 21.047L28.5572 20.909C28.6492 20.6023 28.7336 20.219 28.8102 19.759C28.8869 19.3143 28.9482 18.8697 28.9942 18.425C29.0402 17.965 29.0786 17.5433 29.1092 17.16C29.1399 16.7767 29.1552 16.5007 29.1552 16.332C29.1552 15.458 29.1476 14.584 29.1322 13.71C29.1322 12.836 29.1322 11.962 29.1322 11.088L28.8332 10.766L26.0042 12.031V16.976C26.0042 17.942 26.2112 18.5017 26.6252 18.655V19H22.3932V18.655C22.5772 18.5783 22.7229 18.425 22.8302 18.195C22.9529 17.9497 23.0142 17.6123 23.0142 17.183V9.156L22.1632 8.788V8.535C22.6999 8.45833 23.2826 8.35867 23.9112 8.236C24.5399 8.098 25.0996 7.96767 25.5902 7.845L26.0042 8.535V10.444ZM44.2078 18.448C44.2078 20.3953 44.2768 21.691 44.4148 22.335C43.9855 22.335 43.5178 22.3963 43.0118 22.519C42.5058 22.657 41.9922 22.841 41.4708 23.071C40.9648 23.301 40.4665 23.5693 39.9758 23.876C39.4852 24.198 39.0482 24.543 38.6648 24.911C37.7908 24.267 36.9782 23.7993 36.2268 23.508C35.4755 23.2167 34.6858 23.071 33.8578 23.071C33.9805 22.427 34.1722 21.8367 34.4328 21.3C34.7088 20.7787 35.0232 20.3493 35.3758 20.012C35.5445 20.0273 35.8052 20.104 36.1578 20.242C36.5258 20.3953 36.9245 20.587 37.3538 20.817C37.7832 21.047 38.2048 21.2923 38.6188 21.553C39.0482 21.8137 39.4162 22.0667 39.7228 22.312L41.4478 21.76C41.4172 21.5607 41.3865 21.346 41.3558 21.116C41.3405 20.886 41.3252 20.6023 41.3098 20.265C41.2945 19.9277 41.2792 19.5137 41.2638 19.023C41.2485 18.5477 41.2332 17.965 41.2178 17.275C40.9265 17.4897 40.5968 17.6967 40.2288 17.896C39.8762 18.0953 39.5082 18.2793 39.1248 18.448C38.7415 18.6167 38.3505 18.77 37.9518 18.908C37.5685 19.0307 37.2005 19.1303 36.8478 19.207C36.0965 18.4403 35.2608 17.919 34.3408 17.643C34.4022 17.4283 34.4558 17.2137 34.5018 16.999C34.5478 16.769 34.5785 16.5237 34.5938 16.263C34.6245 15.987 34.6475 15.6803 34.6628 15.343C34.6782 14.9903 34.6858 14.5763 34.6858 14.101C34.6858 12.859 34.6552 11.9007 34.5938 11.226C34.5325 10.5513 34.4328 10.0683 34.2948 9.777C34.6475 9.71567 35.0308 9.62367 35.4448 9.501C35.8588 9.37833 36.2728 9.23267 36.6868 9.064C37.1008 8.89533 37.5072 8.70367 37.9058 8.489C38.3045 8.27433 38.6648 8.052 38.9868 7.822C39.9068 8.098 40.6428 8.29733 41.1948 8.42C41.7622 8.52733 42.2452 8.581 42.6438 8.581C42.9965 8.581 43.3798 8.55033 43.7938 8.489C44.2232 8.41233 44.5912 8.32033 44.8978 8.213C44.7752 8.45833 44.6678 8.74967 44.5758 9.087C44.4838 9.42433 44.4072 9.83833 44.3458 10.329C44.2998 10.8197 44.2615 11.4023 44.2308 12.077C44.2155 12.7517 44.2078 13.549 44.2078 14.469V18.448ZM39.0558 10.099C38.8872 10.2677 38.6725 10.4517 38.4118 10.651C38.1512 10.8503 37.9135 11.0113 37.6988 11.134C37.7448 11.5787 37.7678 12.4143 37.7678 13.641C37.7678 14.285 37.7602 14.8293 37.7448 15.274C37.7295 15.7033 37.6988 16.1173 37.6528 16.516C37.9288 16.5007 38.2355 16.4623 38.5728 16.401C38.9102 16.3397 39.2398 16.263 39.5618 16.171C39.8992 16.079 40.2135 15.9793 40.5048 15.872C40.7962 15.7493 41.0338 15.6267 41.2178 15.504V14.584C41.2178 13.572 41.2332 12.744 41.2638 12.1C41.2945 11.456 41.3482 10.9423 41.4248 10.559C41.2715 10.559 41.0875 10.5513 40.8728 10.536C40.6735 10.5053 40.4665 10.467 40.2518 10.421C40.0372 10.375 39.8225 10.329 39.6078 10.283C39.3932 10.2217 39.2092 10.1603 39.0558 10.099ZM56.4261 12.905C56.4261 13.7637 56.4414 14.446 56.4721 14.952C56.5027 15.458 56.5564 15.8567 56.6331 16.148C56.7251 16.424 56.8324 16.6233 56.9551 16.746C57.0931 16.8533 57.2617 16.9377 57.4611 16.999V17.252C57.2464 17.3287 57.0164 17.4667 56.7711 17.666C56.5411 17.85 56.3111 18.057 56.0811 18.287C55.8511 18.517 55.6441 18.7547 55.4601 19C55.2761 19.2453 55.1381 19.46 55.0461 19.644C54.7241 19.4293 54.4327 19.1457 54.1721 18.793C53.9114 18.4403 53.7044 18.0877 53.5511 17.735C53.2751 17.919 52.9607 18.103 52.6081 18.287C52.2554 18.471 51.8797 18.6473 51.4811 18.816C51.0977 18.9693 50.6991 19.1073 50.2851 19.23C49.8711 19.368 49.4724 19.483 49.0891 19.575C48.7211 19.1763 48.3224 18.8467 47.8931 18.586C47.4637 18.3253 47.0267 18.1337 46.5821 18.011C46.7507 17.367 46.8504 16.7613 46.8811 16.194C46.9117 15.6113 46.9271 15.0287 46.9271 14.446C46.9271 13.71 46.9194 13.0813 46.9041 12.56C46.8887 12.0233 46.8581 11.571 46.8121 11.203C46.7814 10.8197 46.7431 10.513 46.6971 10.283C46.6511 10.0377 46.5974 9.83833 46.5361 9.685C47.2261 9.56233 47.9237 9.33233 48.6291 8.995C49.3497 8.64233 50.0627 8.22067 50.7681 7.73C51.2434 7.92933 51.6881 8.08267 52.1021 8.19C52.5161 8.29733 52.9607 8.374 53.4361 8.42V5.085C53.4361 4.70167 53.4284 4.35667 53.4131 4.05C53.3977 3.74333 53.3594 3.45967 53.2981 3.199C53.2521 2.93833 53.1831 2.68533 53.0911 2.44C52.9991 2.19467 52.8841 1.94167 52.7461 1.681C53.0527 1.78833 53.4131 1.842 53.8271 1.842C54.3331 1.842 54.8621 1.75767 55.4141 1.589C55.9814 1.42033 56.5871 1.18267 57.2311 0.875999C56.9244 1.244 56.7097 1.73467 56.5871 2.348C56.4797 2.96133 56.4261 3.66667 56.4261 4.464V12.905ZM51.5271 10.007C51.3431 10.1757 51.0901 10.3673 50.7681 10.582C50.4614 10.7813 50.1854 10.9347 49.9401 11.042C49.9707 11.3793 49.9861 11.8393 49.9861 12.422C50.0014 12.9893 50.0091 13.5337 50.0091 14.055C50.0091 14.5457 49.9937 15.0363 49.9631 15.527C49.9477 16.0177 49.9247 16.47 49.8941 16.884C50.2007 16.8687 50.5227 16.8303 50.8601 16.769C51.2127 16.6923 51.5501 16.608 51.8721 16.516C52.1941 16.424 52.4931 16.3243 52.7691 16.217C53.0451 16.0943 53.2674 15.9793 53.4361 15.872V10.467C53.1907 10.4517 52.8841 10.398 52.5161 10.306C52.1481 10.214 51.8184 10.1143 51.5271 10.007ZM62.8932 7.868C63.9512 8.22067 64.8329 8.45833 65.5382 8.581C66.2435 8.70367 66.8952 8.765 67.4932 8.765C67.8305 8.765 68.0835 8.765 68.2522 8.765C68.4362 8.74967 68.6125 8.72667 68.7812 8.696C68.5972 9.69267 68.5052 10.8657 68.5052 12.215C68.5052 13.871 68.6432 15.481 68.9192 17.045C68.5359 17.091 68.1295 17.1907 67.7002 17.344C67.2709 17.4973 66.8415 17.689 66.4122 17.919C65.9829 18.149 65.5689 18.4173 65.1702 18.724C64.7715 19.0153 64.4112 19.322 64.0892 19.644C63.9205 19.506 63.6292 19.3603 63.2152 19.207C62.8012 19.069 62.3489 18.9387 61.8582 18.816C61.3675 18.6933 60.8769 18.5937 60.3862 18.517C59.8955 18.4403 59.4892 18.402 59.1672 18.402C59.0752 18.402 58.9832 18.4097 58.8912 18.425C58.8145 18.425 58.7379 18.4327 58.6612 18.448C58.8759 18.264 59.0292 17.9037 59.1212 17.367C59.2285 16.815 59.2822 16.102 59.2822 15.228C59.2822 14.7833 59.2669 14.3003 59.2362 13.779C59.2055 13.2423 59.1595 12.7363 59.0982 12.261C59.0522 11.7857 58.9985 11.3793 58.9372 11.042C58.8759 10.7047 58.8145 10.4977 58.7532 10.421C59.3512 10.3137 60.0182 10.0377 60.7542 9.593C61.4902 9.133 62.2032 8.558 62.8932 7.868ZM65.6532 10.789C64.9479 10.7277 64.2579 10.628 63.5832 10.49C62.9085 10.3367 62.3949 10.168 62.0422 9.984C62.1189 10.628 62.1725 11.2337 62.2032 11.801C62.2339 12.353 62.2492 12.9127 62.2492 13.48C62.2492 13.9247 62.2339 14.4307 62.2032 14.998C62.1879 15.55 62.1649 16.0943 62.1342 16.631C62.6555 16.6923 63.2305 16.7767 63.8592 16.884C64.4879 16.9913 65.0705 17.1293 65.6072 17.298L65.6532 10.789ZM82.3453 20.909C82.4373 20.6023 82.5216 20.219 82.5983 19.759C82.6749 19.3143 82.7363 18.8697 82.7823 18.425C82.8283 17.965 82.8666 17.5433 82.8973 17.16C82.9279 16.7767 82.9433 16.5007 82.9433 16.332C82.9433 15.458 82.9356 14.584 82.9203 13.71C82.9203 12.836 82.9203 11.962 82.9203 11.088L82.6213 10.766L80.0453 11.87C80.0299 12.2073 80.0223 12.652 80.0223 13.204C80.0223 13.756 80.0223 14.3157 80.0223 14.883V16.976C80.0223 17.942 80.2293 18.5017 80.6433 18.655V19H76.5493V18.655C76.7333 18.5783 76.8789 18.425 76.9863 18.195C77.1089 17.9497 77.1703 17.6123 77.1703 17.183V11.088L76.8713 10.766L74.3183 11.87V16.976C74.3183 17.942 74.5253 18.5017 74.9393 18.655V19H70.7073V18.655C70.8913 18.5783 71.0369 18.425 71.1443 18.195C71.2669 17.9497 71.3283 17.6123 71.3283 17.183V9.156L70.4773 8.788V8.535C71.0139 8.45833 71.5966 8.35867 72.2253 8.236C72.8539 8.098 73.4136 7.96767 73.9043 7.845L74.3183 8.535V10.421C74.9163 9.99167 75.4529 9.57 75.9283 9.156C76.4189 8.72667 76.9173 8.22067 77.4233 7.638C77.6839 7.88333 77.9216 8.10567 78.1363 8.305C78.3509 8.489 78.5656 8.65767 78.7803 8.811C79.0103 8.96433 79.2479 9.11767 79.4933 9.271C79.7386 9.409 80.0223 9.55467 80.3443 9.708L80.2063 10.329C80.7736 9.915 81.2873 9.501 81.7473 9.087C82.2073 8.673 82.6826 8.19 83.1733 7.638C83.4339 7.88333 83.6716 8.10567 83.8863 8.305C84.1009 8.489 84.3156 8.65767 84.5303 8.811C84.7603 8.96433 84.9979 9.11767 85.2433 9.271C85.4886 9.409 85.7723 9.55467 86.0943 9.708C86.0329 9.92267 85.9793 10.1527 85.9333 10.398C85.9026 10.628 85.8719 10.927 85.8413 11.295C85.8259 11.663 85.8106 12.1153 85.7953 12.652C85.7799 13.1887 85.7723 13.8557 85.7723 14.653C85.7723 15.3277 85.7723 15.8873 85.7723 16.332C85.7876 16.7613 85.8029 17.114 85.8183 17.39C85.8336 17.666 85.8566 17.896 85.8873 18.08C85.9179 18.2487 85.9486 18.4097 85.9793 18.563C85.6726 18.6703 85.3583 18.816 85.0363 19C84.7296 19.184 84.4153 19.391 84.0933 19.621C83.7866 19.851 83.4953 20.0887 83.2193 20.334C82.9433 20.5793 82.6979 20.817 82.4833 21.047L82.3453 20.909ZM93.2794 18.724C93.4941 18.678 93.6781 18.6013 93.8314 18.494C94.0001 18.3867 94.1381 18.218 94.2454 17.988C94.3681 17.758 94.4524 17.4513 94.4984 17.068C94.5598 16.6847 94.5904 16.1863 94.5904 15.573V9.984H92.6814V9.731C93.3561 9.47033 93.9924 9.07167 94.5904 8.535V7.569C94.5904 6.879 94.5828 6.31167 94.5674 5.867C94.5674 5.42233 94.5521 5.05433 94.5214 4.763C94.4908 4.45633 94.4448 4.19567 94.3834 3.981C94.3221 3.76633 94.2378 3.544 94.1304 3.314C94.4678 3.222 94.8358 3.107 95.2344 2.969C95.6484 2.81567 96.0548 2.647 96.4534 2.463C96.8674 2.279 97.2584 2.07967 97.6264 1.865C98.0098 1.635 98.3394 1.405 98.6154 1.175C99.1521 1.46633 99.7731 1.727 100.478 1.957C101.184 2.17167 101.996 2.37867 102.916 2.578C102.656 3.314 102.357 3.843 102.019 4.165C101.697 4.47167 101.322 4.625 100.892 4.625C100.478 4.625 100.011 4.50233 99.4894 4.257C98.9681 4.01167 98.3854 3.682 97.7414 3.268L97.2814 3.567C97.3428 3.78167 97.3888 4.004 97.4194 4.234C97.4654 4.44867 97.4961 4.72467 97.5114 5.062C97.5421 5.39933 97.5574 5.80567 97.5574 6.281C97.5728 6.75633 97.5804 7.339 97.5804 8.029V8.535H100.823V8.627C100.609 8.857 100.402 9.14067 100.202 9.478C100.018 9.8 99.8728 10.122 99.7654 10.444L97.5804 10.145V15.941C97.5804 16.4317 97.6034 16.8457 97.6494 17.183C97.6954 17.505 97.7721 17.7733 97.8794 17.988C98.0021 18.1873 98.1554 18.3483 98.3394 18.471C98.5234 18.5783 98.7458 18.6627 99.0064 18.724V19C98.4851 19.0153 98.0021 19.069 97.5574 19.161C97.1281 19.253 96.6604 19.414 96.1544 19.644C95.8018 19.4447 95.3571 19.2913 94.8204 19.184C94.2838 19.0767 93.7701 19.0153 93.2794 19V18.724ZM105.636 7.868C106.694 8.22067 107.576 8.45833 108.281 8.581C108.987 8.70367 109.638 8.765 110.236 8.765C110.574 8.765 110.827 8.765 110.995 8.765C111.179 8.74967 111.356 8.72667 111.524 8.696C111.34 9.69267 111.248 10.8657 111.248 12.215C111.248 13.871 111.386 15.481 111.662 17.045C111.279 17.091 110.873 17.1907 110.443 17.344C110.014 17.4973 109.585 17.689 109.155 17.919C108.726 18.149 108.312 18.4173 107.913 18.724C107.515 19.0153 107.154 19.322 106.832 19.644C106.664 19.506 106.372 19.3603 105.958 19.207C105.544 19.069 105.092 18.9387 104.601 18.816C104.111 18.6933 103.62 18.5937 103.129 18.517C102.639 18.4403 102.232 18.402 101.91 18.402C101.818 18.402 101.726 18.4097 101.634 18.425C101.558 18.425 101.481 18.4327 101.404 18.448C101.619 18.264 101.772 17.9037 101.864 17.367C101.972 16.815 102.025 16.102 102.025 15.228C102.025 14.7833 102.01 14.3003 101.979 13.779C101.949 13.2423 101.903 12.7363 101.841 12.261C101.795 11.7857 101.742 11.3793 101.68 11.042C101.619 10.7047 101.558 10.4977 101.496 10.421C102.094 10.3137 102.761 10.0377 103.497 9.593C104.233 9.133 104.946 8.558 105.636 7.868ZM108.396 10.789C107.691 10.7277 107.001 10.628 106.326 10.49C105.652 10.3367 105.138 10.168 104.785 9.984C104.862 10.628 104.916 11.2337 104.946 11.801C104.977 12.353 104.992 12.9127 104.992 13.48C104.992 13.9247 104.977 14.4307 104.946 14.998C104.931 15.55 104.908 16.0943 104.877 16.631C105.399 16.6923 105.974 16.7767 106.602 16.884C107.231 16.9913 107.814 17.1293 108.35 17.298L108.396 10.789ZM117.383 7.868C118.441 8.22067 119.323 8.45833 120.028 8.581C120.734 8.70367 121.385 8.765 121.983 8.765C122.321 8.765 122.574 8.765 122.742 8.765C122.926 8.74967 123.103 8.72667 123.271 8.696C123.087 9.69267 122.995 10.8657 122.995 12.215C122.995 13.871 123.133 15.481 123.409 17.045C123.026 17.091 122.62 17.1907 122.19 17.344C121.761 17.4973 121.332 17.689 120.902 17.919C120.473 18.149 120.059 18.4173 119.66 18.724C119.262 19.0153 118.901 19.322 118.579 19.644C118.411 19.506 118.119 19.3603 117.705 19.207C117.291 19.069 116.839 18.9387 116.348 18.816C115.858 18.6933 115.367 18.5937 114.876 18.517C114.386 18.4403 113.979 18.402 113.657 18.402C113.565 18.402 113.473 18.4097 113.381 18.425C113.305 18.425 113.228 18.4327 113.151 18.448C113.366 18.264 113.519 17.9037 113.611 17.367C113.719 16.815 113.772 16.102 113.772 15.228C113.772 14.7833 113.757 14.3003 113.726 13.779C113.696 13.2423 113.65 12.7363 113.588 12.261C113.542 11.7857 113.489 11.3793 113.427 11.042C113.366 10.7047 113.305 10.4977 113.243 10.421C113.841 10.3137 114.508 10.0377 115.244 9.593C115.98 9.133 116.693 8.558 117.383 7.868ZM120.143 10.789C119.438 10.7277 118.748 10.628 118.073 10.49C117.399 10.3367 116.885 10.168 116.532 9.984C116.609 10.628 116.663 11.2337 116.693 11.801C116.724 12.353 116.739 12.9127 116.739 13.48C116.739 13.9247 116.724 14.4307 116.693 14.998C116.678 15.55 116.655 16.0943 116.624 16.631C117.146 16.6923 117.721 16.7767 118.349 16.884C118.978 16.9913 119.561 17.1293 120.097 17.298L120.143 10.789ZM134.949 12.905C134.949 13.7637 134.965 14.446 134.995 14.952C135.026 15.458 135.08 15.8567 135.156 16.148C135.248 16.424 135.356 16.6233 135.478 16.746C135.616 16.8533 135.785 16.9377 135.984 16.999V17.252C135.77 17.3287 135.54 17.4667 135.294 17.666C135.064 17.85 134.834 18.057 134.604 18.287C134.374 18.517 134.167 18.7547 133.983 19C133.799 19.2453 133.661 19.46 133.569 19.644C133.247 19.4293 132.956 19.1457 132.695 18.793C132.435 18.4403 132.228 18.0877 132.074 17.735C131.798 17.919 131.484 18.103 131.131 18.287C130.779 18.471 130.403 18.6473 130.004 18.816C129.621 18.9693 129.222 19.1073 128.808 19.23C128.394 19.368 127.996 19.483 127.612 19.575C127.244 19.1763 126.846 18.8467 126.416 18.586C125.987 18.3253 125.55 18.1337 125.105 18.011C125.274 17.367 125.374 16.7613 125.404 16.194C125.435 15.6113 125.45 15.0287 125.45 14.446C125.45 13.71 125.443 13.0813 125.427 12.56C125.412 12.0233 125.381 11.571 125.335 11.203C125.305 10.8197 125.266 10.513 125.22 10.283C125.174 10.0377 125.121 9.83833 125.059 9.685C125.749 9.56233 126.447 9.33233 127.152 8.995C127.873 8.64233 128.586 8.22067 129.291 7.73C129.767 7.92933 130.211 8.08267 130.625 8.19C131.039 8.29733 131.484 8.374 131.959 8.42V5.085C131.959 4.70167 131.952 4.35667 131.936 4.05C131.921 3.74333 131.883 3.45967 131.821 3.199C131.775 2.93833 131.706 2.68533 131.614 2.44C131.522 2.19467 131.407 1.94167 131.269 1.681C131.576 1.78833 131.936 1.842 132.35 1.842C132.856 1.842 133.385 1.75767 133.937 1.589C134.505 1.42033 135.11 1.18267 135.754 0.875999C135.448 1.244 135.233 1.73467 135.11 2.348C135.003 2.96133 134.949 3.66667 134.949 4.464V12.905ZM130.05 10.007C129.866 10.1757 129.613 10.3673 129.291 10.582C128.985 10.7813 128.709 10.9347 128.463 11.042C128.494 11.3793 128.509 11.8393 128.509 12.422C128.525 12.9893 128.532 13.5337 128.532 14.055C128.532 14.5457 128.517 15.0363 128.486 15.527C128.471 16.0177 128.448 16.47 128.417 16.884C128.724 16.8687 129.046 16.8303 129.383 16.769C129.736 16.6923 130.073 16.608 130.395 16.516C130.717 16.424 131.016 16.3243 131.292 16.217C131.568 16.0943 131.791 15.9793 131.959 15.872V10.467C131.714 10.4517 131.407 10.398 131.039 10.306C130.671 10.214 130.342 10.1143 130.05 10.007Z" fill="white"/>
</svg>
