<svg width="40" height="40" viewBox="0 0 40 40" fill="none" xmlns="http://www.w3.org/2000/svg">
<path d="M21.2499 20.625H18.75C17.6982 20.6264 16.682 21.006 15.8869 21.6944C15.0917 22.3829 14.5706 23.3343 14.4187 24.375H25.5812C25.4293 23.3343 24.9082 22.3829 24.113 21.6944C23.3179 21.006 22.3017 20.6264 21.2499 20.625Z" fill="#219653"/>
<path d="M13.75 25.625H26.25V26.875H13.75V25.625Z" fill="#219653"/>
<path d="M18.75 31.875H21.2499C22.3017 31.8736 23.3179 31.494 24.113 30.8056C24.9082 30.1171 25.4293 29.1657 25.5812 28.125H14.4187C14.5706 29.1657 15.0917 30.1171 15.8869 30.8056C16.682 31.494 17.6982 31.8736 18.75 31.875Z" fill="#219653"/>
<path d="M30.7062 11.25H27.5V13.75H28.125V15H25.625V13.75H26.25V11.25H13.75V13.75H14.375V15H11.875V13.75H12.5V11.25H9.29375L5.71875 37.5H34.2812L30.7062 11.25ZM27.5 27.5C27.5 27.6658 27.4341 27.8247 27.3169 27.9419C27.1997 28.0592 27.0408 28.125 26.875 28.125H26.8375C26.6817 29.4987 26.0263 30.7673 24.9961 31.6892C23.9658 32.6111 22.6325 33.1222 21.25 33.125H18.75C17.3675 33.1222 16.0342 32.6111 15.0039 31.6892C13.9737 30.7673 13.3183 29.4987 13.1625 28.125H13.125C12.9592 28.125 12.8003 28.0592 12.6831 27.9419C12.5658 27.8247 12.5 27.6658 12.5 27.5V25C12.5 24.8342 12.5658 24.6753 12.6831 24.5581C12.8003 24.4408 12.9592 24.375 13.125 24.375H13.1625C13.3183 23.0013 13.9737 21.7327 15.0039 20.8108C16.0342 19.8889 17.3675 19.3778 18.75 19.375H21.25C22.6325 19.3778 23.9658 19.8889 24.9961 20.8108C26.0263 21.7327 26.6817 23.0013 26.8375 24.375H26.875C27.0408 24.375 27.1997 24.4408 27.3169 24.5581C27.4341 24.6753 27.5 24.8342 27.5 25V27.5Z" fill="#219653"/>
<path d="M13.75 8.75C13.75 7.0924 14.4085 5.50269 15.5806 4.33058C16.7527 3.15848 18.3424 2.5 20 2.5C21.6576 2.5 23.2473 3.15848 24.4194 4.33058C25.5915 5.50269 26.25 7.0924 26.25 8.75V10H27.5V8.75C27.5 6.76088 26.7098 4.85322 25.3033 3.4467C23.8968 2.04018 21.9891 1.25 20 1.25C18.0109 1.25 16.1032 2.04018 14.6967 3.4467C13.2902 4.85322 12.5 6.76088 12.5 8.75V10H13.75V8.75Z" fill="#219653"/>
</svg>
