<svg width="87" height="48" viewBox="0 0 87 48" fill="none" xmlns="http://www.w3.org/2000/svg">
<path d="M14.6035 18.103C13.9441 18.5477 13.4535 18.9847 13.1315 19.414C12.8095 19.8433 12.5335 20.38 12.3035 21.024C12.1501 20.38 11.8435 19.8203 11.3835 19.345C10.9388 18.8697 10.3715 18.4557 9.68147 18.103C9.81947 17.965 9.91914 17.7887 9.98047 17.574C10.0571 17.344 10.1108 17.0297 10.1415 16.631C10.1875 16.217 10.2181 15.6957 10.2335 15.067C10.2488 14.4383 10.2718 13.6487 10.3025 12.698C10.2258 12.6673 10.0188 12.514 9.68147 12.238C9.35947 11.9467 8.99914 11.6247 8.60047 11.272L5.58747 13.158C5.64881 14.262 5.73314 15.32 5.84047 16.332C5.94781 17.3287 6.10881 18.2947 6.32347 19.23C5.92481 19.0307 5.56447 18.8927 5.24247 18.816C4.93581 18.7393 4.63681 18.701 4.34547 18.701C4.08481 18.701 3.82414 18.724 3.56347 18.77C3.31814 18.816 3.05747 18.8697 2.78147 18.931C2.52081 18.977 2.24481 19.023 1.95347 19.069C1.66214 19.115 1.34014 19.138 0.987473 19.138C0.910806 19.138 0.826473 19.138 0.734473 19.138C0.642473 19.138 0.558139 19.1303 0.481473 19.115C0.803473 18.9157 1.09481 18.655 1.35547 18.333C1.63147 17.9957 1.86147 17.6277 2.04547 17.229C2.24481 16.8303 2.39814 16.4087 2.50547 15.964C2.61281 15.5193 2.66647 15.0823 2.66647 14.653C2.66647 13.871 2.57447 13.112 2.39047 12.376C2.20647 11.6247 1.91514 11.0037 1.51647 10.513C1.94581 9.71567 2.23714 8.98733 2.39047 8.328C2.55914 7.66867 2.64347 6.98633 2.64347 6.281C2.64347 6.06633 2.63581 5.798 2.62047 5.476C2.62047 5.13867 2.60514 4.84733 2.57447 4.602C2.03781 4.44867 1.61614 4.188 1.30947 3.82C1.00281 3.43667 0.803473 2.80033 0.711473 1.911C0.972139 1.98767 1.20214 2.05667 1.40147 2.118C1.61614 2.17933 1.83081 2.233 2.04547 2.279C2.26014 2.325 2.49781 2.36333 2.75847 2.394C3.01914 2.40933 3.33347 2.417 3.70147 2.417C4.02347 2.417 4.27647 2.417 4.46047 2.417C4.65981 2.417 4.85147 2.40933 5.03547 2.394C5.21947 2.37867 5.42647 2.35567 5.65647 2.325C5.88647 2.279 6.19314 2.22533 6.57647 2.164C6.31581 2.60867 6.10881 3.05333 5.95547 3.498C5.81747 3.94267 5.71014 4.47933 5.63347 5.108C5.55681 5.73667 5.50314 6.50333 5.47247 7.408C5.45714 8.29733 5.44181 9.409 5.42647 10.743C5.94781 10.467 6.46914 10.145 6.99047 9.777C7.51181 9.39367 7.97947 9.02567 8.39347 8.673C8.80747 8.32033 9.14481 8.02133 9.40547 7.776C9.66614 7.53067 9.81181 7.39267 9.84247 7.362C9.84247 7.11667 9.86547 6.79467 9.91147 6.396C9.95747 5.982 9.98047 5.53733 9.98047 5.062C9.98047 4.832 9.96514 4.58667 9.93447 4.326C9.91914 4.06533 9.88081 3.81233 9.81947 3.567C9.75814 3.30633 9.67381 3.061 9.56647 2.831C9.45914 2.601 9.32114 2.40933 9.15247 2.256C9.33647 2.348 9.53581 2.42467 9.75047 2.486C9.98047 2.532 10.1951 2.57033 10.3945 2.601C10.6091 2.63167 10.7931 2.65467 10.9465 2.67C11.1151 2.67 11.2301 2.67 11.2915 2.67C11.5215 2.67 11.7361 2.624 11.9355 2.532C12.1348 2.44 12.3418 2.348 12.5565 2.256C12.7711 2.14867 13.0088 2.049 13.2695 1.957C13.5301 1.865 13.8368 1.819 14.1895 1.819H14.4425C14.2125 2.06433 14.0131 2.348 13.8445 2.67C13.6758 2.97667 13.5378 3.30633 13.4305 3.659C13.3385 4.01167 13.2695 4.372 13.2235 4.74C13.1775 5.09267 13.1545 5.43767 13.1545 5.775C13.1545 6.26567 13.1928 6.741 13.2695 7.201C13.3615 7.64567 13.4765 8.04433 13.6145 8.397C13.5378 8.42767 13.4151 8.48133 13.2465 8.558C13.0778 8.63467 12.8785 8.73433 12.6485 8.857C12.4185 8.97967 12.1731 9.11767 11.9125 9.271C11.6518 9.42433 11.3835 9.57767 11.1075 9.731C11.2915 9.915 11.4985 10.0913 11.7285 10.26C11.9585 10.4287 12.1961 10.5973 12.4415 10.766C12.7021 10.9193 12.9551 11.0727 13.2005 11.226C13.4458 11.3793 13.6758 11.525 13.8905 11.663C13.8138 11.8317 13.7525 12.123 13.7065 12.537C13.6758 12.951 13.6605 13.4263 13.6605 13.963C13.6605 14.3617 13.6758 14.768 13.7065 15.182C13.7371 15.5807 13.7908 15.9717 13.8675 16.355C13.9441 16.723 14.0361 17.0603 14.1435 17.367C14.2661 17.6737 14.4195 17.919 14.6035 18.103ZM19.9734 8.535V16.976C19.9734 17.942 20.1804 18.5017 20.5944 18.655V19C20.1038 19.0767 19.6438 19.1687 19.2144 19.276C18.7851 19.3833 18.3404 19.506 17.8804 19.644H17.7654C17.2441 18.9387 16.9834 18.1107 16.9834 17.16V9.156L16.1324 8.788V8.535C16.6691 8.45833 17.2518 8.35867 17.8804 8.236C18.5091 8.098 19.0688 7.96767 19.5594 7.845L19.9734 8.535ZM16.3394 4.05C16.6001 3.60533 16.9144 3.16833 17.2824 2.739C17.6658 2.29433 18.0874 1.94933 18.5474 1.704C18.6394 1.82667 18.7774 1.97233 18.9614 2.141C19.1608 2.30967 19.3678 2.47833 19.5824 2.647C19.8124 2.81567 20.0271 2.97667 20.2264 3.13C20.4411 3.268 20.6021 3.36767 20.7094 3.429C20.1881 3.797 19.7434 4.15733 19.3754 4.51C19.0228 4.84733 18.7161 5.27667 18.4554 5.798C18.3634 5.69067 18.2178 5.56033 18.0184 5.407C17.8344 5.23833 17.6351 5.06967 17.4204 4.901C17.2058 4.73233 16.9988 4.57133 16.7994 4.418C16.6001 4.26467 16.4468 4.142 16.3394 4.05ZM26.0833 10.444C26.7427 10.0147 27.333 9.58533 27.8543 9.156C28.3757 8.72667 28.9123 8.22067 29.4643 7.638C29.725 7.88333 29.9627 8.10567 30.1773 8.305C30.392 8.489 30.6067 8.65767 30.8213 8.811C31.0513 8.96433 31.289 9.11767 31.5343 9.271C31.7797 9.409 32.0633 9.55467 32.3853 9.708C32.324 9.92267 32.2703 10.1527 32.2243 10.398C32.1937 10.628 32.163 10.927 32.1323 11.295C32.117 11.663 32.1017 12.1153 32.0863 12.652C32.071 13.1887 32.0633 13.8557 32.0633 14.653C32.0633 15.3277 32.0633 15.8873 32.0633 16.332C32.0787 16.7613 32.094 17.114 32.1093 17.39C32.1247 17.666 32.1477 17.896 32.1783 18.08C32.209 18.2487 32.2397 18.4097 32.2703 18.563C31.9637 18.6703 31.6493 18.816 31.3273 19C31.0207 19.184 30.7063 19.391 30.3843 19.621C30.0777 19.851 29.7863 20.0887 29.5103 20.334C29.2343 20.5793 28.989 20.817 28.7743 21.047L28.6363 20.909C28.7283 20.6023 28.8127 20.219 28.8893 19.759C28.966 19.3143 29.0273 18.8697 29.0733 18.425C29.1193 17.965 29.1577 17.5433 29.1883 17.16C29.219 16.7767 29.2343 16.5007 29.2343 16.332C29.2343 15.458 29.2267 14.584 29.2113 13.71C29.2113 12.836 29.2113 11.962 29.2113 11.088L28.9123 10.766L26.0833 12.031V16.976C26.0833 17.942 26.2903 18.5017 26.7043 18.655V19H22.4723V18.655C22.6563 18.5783 22.802 18.425 22.9093 18.195C23.032 17.9497 23.0933 17.6123 23.0933 17.183V9.156L22.2423 8.788V8.535C22.779 8.45833 23.3617 8.35867 23.9903 8.236C24.619 8.098 25.1787 7.96767 25.6693 7.845L26.0833 8.535V10.444ZM44.2869 18.448C44.2869 20.3953 44.3559 21.691 44.4939 22.335C44.0646 22.335 43.5969 22.3963 43.0909 22.519C42.5849 22.657 42.0713 22.841 41.5499 23.071C41.0439 23.301 40.5456 23.5693 40.0549 23.876C39.5643 24.198 39.1273 24.543 38.7439 24.911C37.8699 24.267 37.0573 23.7993 36.3059 23.508C35.5546 23.2167 34.7649 23.071 33.9369 23.071C34.0596 22.427 34.2513 21.8367 34.5119 21.3C34.7879 20.7787 35.1023 20.3493 35.4549 20.012C35.6236 20.0273 35.8843 20.104 36.2369 20.242C36.6049 20.3953 37.0036 20.587 37.4329 20.817C37.8623 21.047 38.2839 21.2923 38.6979 21.553C39.1273 21.8137 39.4953 22.0667 39.8019 22.312L41.5269 21.76C41.4963 21.5607 41.4656 21.346 41.4349 21.116C41.4196 20.886 41.4043 20.6023 41.3889 20.265C41.3736 19.9277 41.3583 19.5137 41.3429 19.023C41.3276 18.5477 41.3123 17.965 41.2969 17.275C41.0056 17.4897 40.6759 17.6967 40.3079 17.896C39.9553 18.0953 39.5873 18.2793 39.2039 18.448C38.8206 18.6167 38.4296 18.77 38.0309 18.908C37.6476 19.0307 37.2796 19.1303 36.9269 19.207C36.1756 18.4403 35.3399 17.919 34.4199 17.643C34.4813 17.4283 34.5349 17.2137 34.5809 16.999C34.6269 16.769 34.6576 16.5237 34.6729 16.263C34.7036 15.987 34.7266 15.6803 34.7419 15.343C34.7573 14.9903 34.7649 14.5763 34.7649 14.101C34.7649 12.859 34.7343 11.9007 34.6729 11.226C34.6116 10.5513 34.5119 10.0683 34.3739 9.777C34.7266 9.71567 35.1099 9.62367 35.5239 9.501C35.9379 9.37833 36.3519 9.23267 36.7659 9.064C37.1799 8.89533 37.5863 8.70367 37.9849 8.489C38.3836 8.27433 38.7439 8.052 39.0659 7.822C39.9859 8.098 40.7219 8.29733 41.2739 8.42C41.8413 8.52733 42.3243 8.581 42.7229 8.581C43.0756 8.581 43.4589 8.55033 43.8729 8.489C44.3023 8.41233 44.6703 8.32033 44.9769 8.213C44.8543 8.45833 44.7469 8.74967 44.6549 9.087C44.5629 9.42433 44.4863 9.83833 44.425 10.329C44.3789 10.8197 44.3406 11.4023 44.3099 12.077C44.2946 12.7517 44.2869 13.549 44.2869 14.469V18.448ZM39.1349 10.099C38.9663 10.2677 38.7516 10.4517 38.4909 10.651C38.2303 10.8503 37.9926 11.0113 37.7779 11.134C37.8239 11.5787 37.8469 12.4143 37.8469 13.641C37.8469 14.285 37.8393 14.8293 37.8239 15.274C37.8086 15.7033 37.7779 16.1173 37.7319 16.516C38.0079 16.5007 38.3146 16.4623 38.6519 16.401C38.9893 16.3397 39.3189 16.263 39.6409 16.171C39.9783 16.079 40.2926 15.9793 40.5839 15.872C40.8753 15.7493 41.1129 15.6267 41.2969 15.504V14.584C41.2969 13.572 41.3123 12.744 41.3429 12.1C41.3736 11.456 41.4273 10.9423 41.5039 10.559C41.3506 10.559 41.1666 10.5513 40.9519 10.536C40.7526 10.5053 40.5456 10.467 40.3309 10.421C40.1163 10.375 39.9016 10.329 39.6869 10.283C39.4723 10.2217 39.2883 10.1603 39.1349 10.099ZM56.5052 12.905C56.5052 13.7637 56.5205 14.446 56.5512 14.952C56.5818 15.458 56.6355 15.8567 56.7122 16.148C56.8042 16.424 56.9115 16.6233 57.0342 16.746C57.1722 16.8533 57.3408 16.9377 57.5402 16.999V17.252C57.3255 17.3287 57.0955 17.4667 56.8502 17.666C56.6202 17.85 56.3902 18.057 56.1602 18.287C55.9302 18.517 55.7232 18.7547 55.5392 19C55.3552 19.2453 55.2172 19.46 55.1252 19.644C54.8032 19.4293 54.5118 19.1457 54.2512 18.793C53.9905 18.4403 53.7835 18.0877 53.6302 17.735C53.3542 17.919 53.0398 18.103 52.6872 18.287C52.3345 18.471 51.9588 18.6473 51.5602 18.816C51.1768 18.9693 50.7782 19.1073 50.3642 19.23C49.9502 19.368 49.5515 19.483 49.1682 19.575C48.8002 19.1763 48.4015 18.8467 47.9722 18.586C47.5428 18.3253 47.1058 18.1337 46.6612 18.011C46.8298 17.367 46.9295 16.7613 46.9602 16.194C46.9908 15.6113 47.0062 15.0287 47.0062 14.446C47.0062 13.71 46.9985 13.0813 46.9832 12.56C46.9678 12.0233 46.9372 11.571 46.8912 11.203C46.8605 10.8197 46.8222 10.513 46.7762 10.283C46.7302 10.0377 46.6765 9.83833 46.6152 9.685C47.3052 9.56233 48.0028 9.33233 48.7082 8.995C49.4288 8.64233 50.1418 8.22067 50.8472 7.73C51.3225 7.92933 51.7672 8.08267 52.1812 8.19C52.5952 8.29733 53.0398 8.374 53.5152 8.42V5.085C53.5152 4.70167 53.5075 4.35667 53.4922 4.05C53.4768 3.74333 53.4385 3.45967 53.3772 3.199C53.3312 2.93833 53.2622 2.68533 53.1702 2.44C53.0782 2.19467 52.9632 1.94167 52.8252 1.681C53.1318 1.78833 53.4922 1.842 53.9062 1.842C54.4122 1.842 54.9412 1.75767 55.4932 1.589C56.0605 1.42033 56.6662 1.18267 57.3102 0.875999C57.0035 1.244 56.7888 1.73467 56.6662 2.348C56.5588 2.96133 56.5052 3.66667 56.5052 4.464V12.905ZM51.6062 10.007C51.4222 10.1757 51.1692 10.3673 50.8472 10.582C50.5405 10.7813 50.2645 10.9347 50.0192 11.042C50.0498 11.3793 50.0652 11.8393 50.0652 12.422C50.0805 12.9893 50.0882 13.5337 50.0882 14.055C50.0882 14.5457 50.0728 15.0363 50.0422 15.527C50.0268 16.0177 50.0038 16.47 49.9732 16.884C50.2798 16.8687 50.6018 16.8303 50.9392 16.769C51.2918 16.6923 51.6292 16.608 51.9512 16.516C52.2732 16.424 52.5722 16.3243 52.8482 16.217C53.1242 16.0943 53.3465 15.9793 53.5152 15.872V10.467C53.2698 10.4517 52.9632 10.398 52.5952 10.306C52.2272 10.214 51.8975 10.1143 51.6062 10.007ZM62.9723 7.868C64.0303 8.22067 64.912 8.45833 65.6173 8.581C66.3226 8.70367 66.9743 8.765 67.5723 8.765C67.9096 8.765 68.1626 8.765 68.3313 8.765C68.5153 8.74967 68.6916 8.72667 68.8603 8.696C68.6763 9.69267 68.5843 10.8657 68.5843 12.215C68.5843 13.871 68.7223 15.481 68.9983 17.045C68.615 17.091 68.2086 17.1907 67.7793 17.344C67.35 17.4973 66.9206 17.689 66.4913 17.919C66.062 18.149 65.648 18.4173 65.2493 18.724C64.8506 19.0153 64.4903 19.322 64.1683 19.644C63.9996 19.506 63.7083 19.3603 63.2943 19.207C62.8803 19.069 62.428 18.9387 61.9373 18.816C61.4466 18.6933 60.956 18.5937 60.4653 18.517C59.9746 18.4403 59.5683 18.402 59.2463 18.402C59.1543 18.402 59.0623 18.4097 58.9703 18.425C58.8936 18.425 58.817 18.4327 58.7403 18.448C58.955 18.264 59.1083 17.9037 59.2003 17.367C59.3076 16.815 59.3613 16.102 59.3613 15.228C59.3613 14.7833 59.346 14.3003 59.3153 13.779C59.2846 13.2423 59.2386 12.7363 59.1773 12.261C59.1313 11.7857 59.0776 11.3793 59.0163 11.042C58.955 10.7047 58.8936 10.4977 58.8323 10.421C59.4303 10.3137 60.0973 10.0377 60.8333 9.593C61.5693 9.133 62.2823 8.558 62.9723 7.868ZM65.7323 10.789C65.027 10.7277 64.337 10.628 63.6623 10.49C62.9876 10.3367 62.474 10.168 62.1213 9.984C62.198 10.628 62.2516 11.2337 62.2823 11.801C62.313 12.353 62.3283 12.9127 62.3283 13.48C62.3283 13.9247 62.313 14.4307 62.2823 14.998C62.267 15.55 62.244 16.0943 62.2133 16.631C62.7346 16.6923 63.3096 16.7767 63.9383 16.884C64.567 16.9913 65.1496 17.1293 65.6863 17.298L65.7323 10.789ZM82.4244 20.909C82.5164 20.6023 82.6007 20.219 82.6774 19.759C82.754 19.3143 82.8154 18.8697 82.8614 18.425C82.9074 17.965 82.9457 17.5433 82.9764 17.16C83.007 16.7767 83.0224 16.5007 83.0224 16.332C83.0224 15.458 83.0147 14.584 82.9994 13.71C82.9994 12.836 82.9994 11.962 82.9994 11.088L82.7004 10.766L80.1244 11.87C80.109 12.2073 80.1014 12.652 80.1014 13.204C80.1014 13.756 80.1014 14.3157 80.1014 14.883V16.976C80.1014 17.942 80.3084 18.5017 80.7224 18.655V19H76.6284V18.655C76.8124 18.5783 76.958 18.425 77.0654 18.195C77.188 17.9497 77.2494 17.6123 77.2494 17.183V11.088L76.9504 10.766L74.3974 11.87V16.976C74.3974 17.942 74.6044 18.5017 75.0184 18.655V19H70.7864V18.655C70.9704 18.5783 71.116 18.425 71.2234 18.195C71.346 17.9497 71.4074 17.6123 71.4074 17.183V9.156L70.5564 8.788V8.535C71.093 8.45833 71.6757 8.35867 72.3044 8.236C72.933 8.098 73.4927 7.96767 73.9834 7.845L74.3974 8.535V10.421C74.9954 9.99167 75.532 9.57 76.0074 9.156C76.498 8.72667 76.9964 8.22067 77.5024 7.638C77.763 7.88333 78.0007 8.10567 78.2154 8.305C78.43 8.489 78.6447 8.65767 78.8594 8.811C79.0894 8.96433 79.327 9.11767 79.5724 9.271C79.8177 9.409 80.1014 9.55467 80.4234 9.708L80.2854 10.329C80.8527 9.915 81.3664 9.501 81.8264 9.087C82.2864 8.673 82.7617 8.19 83.2524 7.638C83.513 7.88333 83.7507 8.10567 83.9654 8.305C84.18 8.489 84.3947 8.65767 84.6094 8.811C84.8394 8.96433 85.077 9.11767 85.3224 9.271C85.5677 9.409 85.8514 9.55467 86.1734 9.708C86.112 9.92267 86.0584 10.1527 86.0124 10.398C85.9817 10.628 85.951 10.927 85.9204 11.295C85.905 11.663 85.8897 12.1153 85.8744 12.652C85.859 13.1887 85.8514 13.8557 85.8514 14.653C85.8514 15.3277 85.8514 15.8873 85.8514 16.332C85.8667 16.7613 85.882 17.114 85.8974 17.39C85.9127 17.666 85.9357 17.896 85.9664 18.08C85.997 18.2487 86.0277 18.4097 86.0584 18.563C85.7517 18.6703 85.4374 18.816 85.1154 19C84.8087 19.184 84.4944 19.391 84.1724 19.621C83.8657 19.851 83.5744 20.0887 83.2984 20.334C83.0224 20.5793 82.777 20.817 82.5624 21.047L82.4244 20.909ZM24.8639 46.724C25.0786 46.678 25.2626 46.6013 25.4159 46.494C25.5846 46.3867 25.7226 46.218 25.8299 45.988C25.9526 45.758 26.0369 45.4513 26.0829 45.068C26.1442 44.6847 26.1749 44.1863 26.1749 43.573V37.984H24.2659V37.731C24.9406 37.4703 25.5769 37.0717 26.1749 36.535V35.569C26.1749 34.879 26.1672 34.3117 26.1519 33.867C26.1519 33.4223 26.1366 33.0543 26.1059 32.763C26.0752 32.4563 26.0292 32.1957 25.9679 31.981C25.9066 31.7663 25.8222 31.544 25.7149 31.314C26.0522 31.222 26.4202 31.107 26.8189 30.969C27.2329 30.8157 27.6392 30.647 28.0379 30.463C28.4519 30.279 28.8429 30.0797 29.2109 29.865C29.5942 29.635 29.9239 29.405 30.1999 29.175C30.7366 29.4663 31.3576 29.727 32.0629 29.957C32.7682 30.1717 33.5809 30.3787 34.5009 30.578C34.2402 31.314 33.9412 31.843 33.6039 32.165C33.2819 32.4717 32.9062 32.625 32.4769 32.625C32.0629 32.625 31.5952 32.5023 31.0739 32.257C30.5526 32.0117 29.9699 31.682 29.3259 31.268L28.8659 31.567C28.9272 31.7817 28.9732 32.004 29.0039 32.234C29.0499 32.4487 29.0806 32.7247 29.0959 33.062C29.1266 33.3993 29.1419 33.8057 29.1419 34.281C29.1572 34.7563 29.1649 35.339 29.1649 36.029V36.535H32.4079V36.627C32.1932 36.857 31.9862 37.1407 31.7869 37.478C31.6029 37.8 31.4572 38.122 31.3499 38.444L29.1649 38.145V43.941C29.1649 44.4317 29.1879 44.8457 29.2339 45.183C29.2799 45.505 29.3566 45.7733 29.4639 45.988C29.5866 46.1873 29.7399 46.3483 29.9239 46.471C30.1079 46.5783 30.3302 46.6627 30.5909 46.724V47C30.0696 47.0153 29.5866 47.069 29.1419 47.161C28.7126 47.253 28.2449 47.414 27.7389 47.644C27.3862 47.4447 26.9416 47.2913 26.4049 47.184C25.8682 47.0767 25.3546 47.0153 24.8639 47V46.724ZM37.2208 35.868C38.2788 36.2207 39.1605 36.4583 39.8658 36.581C40.5712 36.7037 41.2228 36.765 41.8208 36.765C42.1582 36.765 42.4112 36.765 42.5798 36.765C42.7638 36.7497 42.9402 36.7267 43.1088 36.696C42.9248 37.6927 42.8328 38.8657 42.8328 40.215C42.8328 41.871 42.9708 43.481 43.2468 45.045C42.8635 45.091 42.4572 45.1907 42.0278 45.344C41.5985 45.4973 41.1692 45.689 40.7398 45.919C40.3105 46.149 39.8965 46.4173 39.4978 46.724C39.0992 47.0153 38.7388 47.322 38.4168 47.644C38.2482 47.506 37.9568 47.3603 37.5428 47.207C37.1288 47.069 36.6765 46.9387 36.1858 46.816C35.6952 46.6933 35.2045 46.5937 34.7138 46.517C34.2232 46.4403 33.8168 46.402 33.4948 46.402C33.4028 46.402 33.3108 46.4097 33.2188 46.425C33.1422 46.425 33.0655 46.4327 32.9888 46.448C33.2035 46.264 33.3568 45.9037 33.4488 45.367C33.5562 44.815 33.6098 44.102 33.6098 43.228C33.6098 42.7833 33.5945 42.3003 33.5638 41.779C33.5332 41.2423 33.4872 40.7363 33.4258 40.261C33.3798 39.7857 33.3262 39.3793 33.2648 39.042C33.2035 38.7047 33.1422 38.4977 33.0808 38.421C33.6788 38.3137 34.3458 38.0377 35.0818 37.593C35.8178 37.133 36.5308 36.558 37.2208 35.868ZM39.9808 38.789C39.2755 38.7277 38.5855 38.628 37.9108 38.49C37.2362 38.3367 36.7225 38.168 36.3698 37.984C36.4465 38.628 36.5002 39.2337 36.5308 39.801C36.5615 40.353 36.5768 40.9127 36.5768 41.48C36.5768 41.9247 36.5615 42.4307 36.5308 42.998C36.5155 43.55 36.4925 44.0943 36.4618 44.631C36.9832 44.6923 37.5582 44.7767 38.1868 44.884C38.8155 44.9913 39.3982 45.1293 39.9348 45.298L39.9808 38.789ZM48.9679 35.868C50.0259 36.2207 50.9076 36.4583 51.6129 36.581C52.3182 36.7037 52.9699 36.765 53.5679 36.765C53.9052 36.765 54.1582 36.765 54.3269 36.765C54.5109 36.7497 54.6872 36.7267 54.8559 36.696C54.6719 37.6927 54.5799 38.8657 54.5799 40.215C54.5799 41.871 54.7179 43.481 54.9939 45.045C54.6106 45.091 54.2042 45.1907 53.7749 45.344C53.3456 45.4973 52.9162 45.689 52.4869 45.919C52.0576 46.149 51.6436 46.4173 51.2449 46.724C50.8462 47.0153 50.4859 47.322 50.1639 47.644C49.9952 47.506 49.7039 47.3603 49.2899 47.207C48.8759 47.069 48.4236 46.9387 47.9329 46.816C47.4422 46.6933 46.9516 46.5937 46.4609 46.517C45.9702 46.4403 45.5639 46.402 45.2419 46.402C45.1499 46.402 45.0579 46.4097 44.9659 46.425C44.8892 46.425 44.8126 46.4327 44.7359 46.448C44.9506 46.264 45.1039 45.9037 45.1959 45.367C45.3032 44.815 45.3569 44.102 45.3569 43.228C45.3569 42.7833 45.3416 42.3003 45.3109 41.779C45.2802 41.2423 45.2342 40.7363 45.1729 40.261C45.1269 39.7857 45.0732 39.3793 45.0119 39.042C44.9506 38.7047 44.8892 38.4977 44.8279 38.421C45.4259 38.3137 46.0929 38.0377 46.8289 37.593C47.5649 37.133 48.2779 36.558 48.9679 35.868ZM51.7279 38.789C51.0226 38.7277 50.3326 38.628 49.6579 38.49C48.9832 38.3367 48.4696 38.168 48.1169 37.984C48.1936 38.628 48.2472 39.2337 48.2779 39.801C48.3086 40.353 48.3239 40.9127 48.3239 41.48C48.3239 41.9247 48.3086 42.4307 48.2779 42.998C48.2626 43.55 48.2396 44.0943 48.2089 44.631C48.7302 44.6923 49.3052 44.7767 49.9339 44.884C50.5626 44.9913 51.1452 45.1293 51.6819 45.298L51.7279 38.789ZM66.534 40.905C66.534 41.7637 66.5493 42.446 66.58 42.952C66.6106 43.458 66.6643 43.8567 66.741 44.148C66.833 44.424 66.9403 44.6233 67.063 44.746C67.201 44.8533 67.3696 44.9377 67.569 44.999V45.252C67.3543 45.3287 67.1243 45.4667 66.879 45.666C66.649 45.85 66.419 46.057 66.189 46.287C65.959 46.517 65.752 46.7547 65.568 47C65.384 47.2453 65.246 47.46 65.154 47.644C64.832 47.4293 64.5406 47.1457 64.28 46.793C64.0193 46.4403 63.8123 46.0877 63.659 45.735C63.383 45.919 63.0686 46.103 62.716 46.287C62.3633 46.471 61.9876 46.6473 61.589 46.816C61.2056 46.9693 60.807 47.1073 60.393 47.23C59.979 47.368 59.5803 47.483 59.197 47.575C58.829 47.1763 58.4303 46.8467 58.001 46.586C57.5716 46.3253 57.1346 46.1337 56.69 46.011C56.8586 45.367 56.9583 44.7613 56.989 44.194C57.0196 43.6113 57.035 43.0287 57.035 42.446C57.035 41.71 57.0273 41.0813 57.012 40.56C56.9966 40.0233 56.966 39.571 56.92 39.203C56.8893 38.8197 56.851 38.513 56.805 38.283C56.759 38.0377 56.7053 37.8383 56.644 37.685C57.334 37.5623 58.0316 37.3323 58.737 36.995C59.4576 36.6423 60.1706 36.2207 60.876 35.73C61.3513 35.9293 61.796 36.0827 62.21 36.19C62.624 36.2973 63.0686 36.374 63.544 36.42V33.085C63.544 32.7017 63.5363 32.3567 63.521 32.05C63.5056 31.7433 63.4673 31.4597 63.406 31.199C63.36 30.9383 63.291 30.6853 63.199 30.44C63.107 30.1947 62.992 29.9417 62.854 29.681C63.1606 29.7883 63.521 29.842 63.935 29.842C64.441 29.842 64.97 29.7577 65.522 29.589C66.0893 29.4203 66.695 29.1827 67.339 28.876C67.0323 29.244 66.8176 29.7347 66.695 30.348C66.5876 30.9613 66.534 31.6667 66.534 32.464V40.905ZM61.635 38.007C61.451 38.1757 61.198 38.3673 60.876 38.582C60.5693 38.7813 60.2933 38.9347 60.048 39.042C60.0786 39.3793 60.094 39.8393 60.094 40.422C60.1093 40.9893 60.117 41.5337 60.117 42.055C60.117 42.5457 60.1016 43.0363 60.071 43.527C60.0556 44.0177 60.0326 44.47 60.002 44.884C60.3086 44.8687 60.6306 44.8303 60.968 44.769C61.3206 44.6923 61.658 44.608 61.98 44.516C62.302 44.424 62.601 44.3243 62.877 44.217C63.153 44.0943 63.3753 43.9793 63.544 43.872V38.467C63.2986 38.4517 62.992 38.398 62.624 38.306C62.256 38.214 61.9263 38.1143 61.635 38.007Z" fill="white"/>
</svg>
