<svg width="40" height="40" viewBox="0 0 40 40" fill="none" xmlns="http://www.w3.org/2000/svg">
<g clip-path="url(#clip0)">
<path d="M24.375 33.1249C24.5408 33.1249 24.6997 33.0591 24.8169 32.9418C24.9342 32.8246 25 32.6657 25 32.4999C25 31.3042 22.5 31.8915 22.5 33.7499C22.5 35.6061 25 36.1995 25 34.9999C25 34.8341 24.9342 34.6752 24.8169 34.558C24.6997 34.4408 24.5408 34.3749 24.375 34.3749C24.2092 34.3749 24.0503 34.3091 23.9331 34.1918C23.8158 34.0746 23.75 33.9157 23.75 33.7499C23.75 33.5841 23.8158 33.4252 23.9331 33.308C24.0503 33.1908 24.2092 33.1249 24.375 33.1249Z" fill="#219653"/>
<path d="M24.375 29.375C24.375 29.0042 24.265 28.6416 24.059 28.3333C23.853 28.025 23.5601 27.7846 23.2175 27.6427C22.8749 27.5008 22.4979 27.4637 22.1342 27.536C21.7705 27.6084 21.4364 27.787 21.1742 28.0492C20.912 28.3114 20.7334 28.6455 20.661 29.0092C20.5887 29.3729 20.6258 29.7499 20.7677 30.0925C20.9096 30.4351 21.15 30.728 21.4583 30.934C21.7667 31.14 22.1292 31.25 22.5 31.25C22.9971 31.2494 23.4737 31.0517 23.8252 30.7002C24.1767 30.3487 24.3744 29.8721 24.375 29.375ZM21.875 29.375C21.875 29.2514 21.9117 29.1306 21.9803 29.0278C22.049 28.925 22.1466 28.8449 22.2608 28.7976C22.375 28.7503 22.5007 28.7379 22.6219 28.762C22.7432 28.7861 22.8545 28.8457 22.9419 28.9331C23.0294 29.0205 23.0889 29.1318 23.113 29.2531C23.1371 29.3743 23.1247 29.5 23.0774 29.6142C23.0301 29.7284 22.95 29.826 22.8472 29.8947C22.7445 29.9633 22.6236 30 22.5 30C22.3343 29.9998 22.1754 29.9339 22.0583 29.8167C21.9411 29.6996 21.8752 29.5407 21.875 29.375Z" fill="#219653"/>
<path d="M19.375 33.75C19.0042 33.75 18.6417 33.86 18.3333 34.066C18.025 34.272 17.7846 34.5649 17.6427 34.9075C17.5008 35.2501 17.4637 35.6271 17.536 35.9908C17.6084 36.3545 17.787 36.6886 18.0492 36.9508C18.3114 37.213 18.6455 37.3916 19.0092 37.464C19.3729 37.5363 19.7499 37.4992 20.0925 37.3573C20.4352 37.2154 20.728 36.975 20.934 36.6667C21.14 36.3584 21.25 35.9958 21.25 35.625C21.2495 35.1279 21.0517 34.6513 20.7002 34.2998C20.3487 33.9483 19.8721 33.7506 19.375 33.75ZM19.375 36.25C19.2514 36.25 19.1306 36.2133 19.0278 36.1447C18.925 36.076 18.8449 35.9784 18.7976 35.8642C18.7503 35.75 18.7379 35.6243 18.762 35.5031C18.7861 35.3818 18.8457 35.2705 18.9331 35.1831C19.0205 35.0956 19.1318 35.0361 19.2531 35.012C19.3743 34.9879 19.5 35.0003 19.6142 35.0476C19.7284 35.0949 19.826 35.175 19.8947 35.2778C19.9634 35.3806 20 35.5014 20 35.625C19.9998 35.7907 19.9339 35.9496 19.8167 36.0667C19.6996 36.1839 19.5407 36.2498 19.375 36.25Z" fill="#219653"/>
<path d="M25.1646 38.2109C21.6967 39.3834 17.7967 38.5859 15.1099 36.1852L15.5925 34.9314C17.2614 34.5307 18.0051 32.4771 17.0696 31.0955L18.7204 26.808C21.4192 27.6417 23.0251 23.3208 20.5207 22.1316L21.875 18.6144L23.7136 23.3894C24.0109 24.1615 25.1772 23.7116 24.8802 22.9402L22.7854 17.5H25.8209L26.5251 19.329C24.6437 20.902 25.9513 24.4269 28.7927 23.6591C28.8725 23.6382 28.9473 23.6017 29.013 23.5517C29.0786 23.5018 29.1337 23.4393 29.1751 23.3679C29.2164 23.2966 29.2433 23.2177 29.254 23.136C29.2648 23.0542 29.2593 22.9711 29.2378 22.8914C29.2163 22.8118 29.1792 22.7372 29.1287 22.672C29.0783 22.6067 29.0154 22.5521 28.9437 22.5113C28.872 22.4705 28.793 22.4443 28.7111 22.4341C28.6292 22.424 28.5462 22.4302 28.4667 22.4523C26.8134 22.8989 26.3937 20.7215 27.5693 20.1304C27.7079 20.0607 27.8156 19.9419 27.8715 19.7972C27.9274 19.6525 27.9275 19.4922 27.8717 19.3474L26.8333 16.6504C26.7879 16.5325 26.7079 16.4312 26.6037 16.3597C26.4996 16.2882 26.3763 16.25 26.25 16.25C21.7586 16.2524 21.5023 16.1032 21.2917 16.6504C19.1364 22.4762 18.8915 22.3769 19.1561 22.8387C19.2022 22.9192 19.2657 22.9885 19.342 23.0415C19.4182 23.0944 19.5053 23.1297 19.5969 23.1448C20.949 23.3673 20.6159 24.9817 19.8905 25.493C19.5478 25.7346 19.1516 25.715 18.7129 25.4349C18.6348 25.3851 18.5466 25.3532 18.4547 25.3416C18.3628 25.33 18.2694 25.339 18.1814 25.368C18.0934 25.3969 18.0129 25.445 17.9458 25.5089C17.8786 25.5727 17.8266 25.6507 17.7933 25.7372L15.7737 30.9825C15.7309 31.0939 15.7208 31.2152 15.7447 31.3322C15.7686 31.4491 15.8254 31.5568 15.9086 31.6424C16.58 32.3339 16.1281 33.6834 15.1012 33.7457C14.9815 33.753 14.8665 33.7945 14.7698 33.8653C14.6731 33.9361 14.5987 34.0332 14.5557 34.1451L13.7917 36.1302C13.7477 36.2444 13.7383 36.369 13.7645 36.4886C13.7908 36.6082 13.8515 36.7174 13.9393 36.8027C17.0565 39.834 21.5909 40.7388 25.565 39.3952C25.722 39.3421 25.8515 39.2288 25.925 39.0803C25.9985 38.9317 26.01 38.76 25.9569 38.603C25.9038 38.4459 25.7905 38.3164 25.6419 38.243C25.4933 38.1695 25.3216 38.158 25.1646 38.2111V38.2109Z" fill="#219653"/>
<path d="M39.375 25C38.7902 25 27.2643 25 25.625 25C25.4592 25 25.3003 25.0658 25.1831 25.1831C25.0658 25.3003 25 25.4592 25 25.625C25 25.7908 25.0658 25.9497 25.1831 26.0669C25.3003 26.1842 25.4592 26.25 25.625 26.25H26.3047L27.503 39.4316C27.5171 39.5868 27.5887 39.7312 27.7038 39.8364C27.8189 39.9415 27.9691 39.9999 28.125 40H36.875C37.031 40 37.1813 39.9417 37.2965 39.8365C37.4116 39.7313 37.4833 39.5869 37.4974 39.4316L37.9521 34.4261C37.9607 34.3438 37.9528 34.2605 37.929 34.1813C37.9052 34.102 37.8658 34.0283 37.8132 33.9643C37.7607 33.9004 37.6959 33.8475 37.6228 33.8088C37.5496 33.7701 37.4695 33.7463 37.387 33.7388C37.3046 33.7313 37.2215 33.7403 37.1425 33.7652C37.0636 33.7901 36.9904 33.8304 36.9271 33.8838C36.8639 33.9373 36.8119 34.0027 36.7742 34.0764C36.7364 34.1501 36.7137 34.2305 36.7073 34.313L36.3041 38.75H28.6958L27.5594 26.25H37.4407L37.1604 29.3348C37.1465 29.4993 37.1983 29.6626 37.3044 29.789C37.4104 29.9155 37.5622 29.9948 37.7266 30.0098C37.891 30.0247 38.0546 29.974 38.1817 29.8688C38.3089 29.7635 38.3892 29.6122 38.4052 29.448L38.6958 26.25H39.375C39.5408 26.25 39.6997 26.1842 39.8169 26.0669C39.9342 25.9497 40 25.7908 40 25.625C40 25.4592 39.9342 25.3003 39.8169 25.1831C39.6997 25.0658 39.5408 25 39.375 25Z" fill="#219653"/>
<path d="M21.8754 14.9873C21.9559 15.0037 22.0387 15.0042 22.1193 14.9886C22.1999 14.9731 22.2766 14.9418 22.3451 14.8966C22.4136 14.8513 22.4725 14.7931 22.5185 14.7251C22.5645 14.6571 22.5966 14.5807 22.6131 14.5003C22.8884 13.1517 23.6487 11.9508 24.75 11.125C24.7736 11.1073 24.796 11.0879 24.8169 11.067C25.6468 10.2366 25.7689 8.68062 24.1665 7.34086C23.8748 7.09695 23.7695 6.68461 23.854 6.45211C23.8743 6.39656 23.9258 6.24898 24.2837 6.25C31.8527 6.39406 32.2323 6.0282 32.3911 6.46203C32.475 6.69102 32.3811 7.09203 32.0836 7.34086C31.2928 8.00203 30.8747 8.72 30.8414 9.47461C30.808 10.2213 31.2142 10.9104 31.5002 11.1249C32.1972 11.6504 32.763 12.3302 33.1533 13.1109C33.5436 13.8916 33.7478 14.7521 33.75 15.625C33.75 15.7908 33.8158 15.9497 33.933 16.0669C34.0502 16.1842 34.2092 16.25 34.375 16.25C34.5407 16.25 34.6997 16.1842 34.8169 16.0669C34.9341 15.9497 35 15.7908 35 15.625C34.9974 14.5691 34.7528 13.5278 34.285 12.5811C33.8173 11.6345 33.1387 10.8076 32.3016 10.1641C31.7909 9.53078 32.2638 8.8193 32.8853 8.29969C34.0165 7.35391 33.9504 5.46172 32.5 5.06742V0.625C32.5 0.45924 32.4341 0.300269 32.3169 0.183058C32.1997 0.065848 32.0407 0 31.875 0L24.375 0C24.2092 0 24.0502 0.065848 23.933 0.183058C23.8158 0.300269 23.75 0.45924 23.75 0.625V5.06695C22.2848 5.45758 22.2313 7.35211 23.3647 8.29977C23.9944 8.82625 24.4553 9.535 23.9484 10.1641C22.6297 11.1723 21.7204 12.6236 21.3884 14.25C21.3553 14.4123 21.388 14.5812 21.4793 14.7195C21.5706 14.8577 21.7131 14.954 21.8754 14.9873ZM25 1.25H31.25V2.5H26.875C26.7092 2.5 26.5502 2.56585 26.433 2.68306C26.3158 2.80027 26.25 2.95924 26.25 3.125C26.25 3.29076 26.3158 3.44973 26.433 3.56694C26.5502 3.68415 26.7092 3.75 26.875 3.75H31.25V5H25V1.25Z" fill="#219653"/>
<path d="M6.875 29.375C6.875 29.2093 6.80915 29.0503 6.69194 28.9331C6.57473 28.8159 6.41576 28.75 6.25 28.75C5.58719 28.7493 4.95173 28.4857 4.48306 28.017C4.01438 27.5483 3.75074 26.9129 3.75 26.25C3.75 25.2989 5.13023 23.1425 6.25 21.6466C7.36977 23.1418 8.75 25.2978 8.75 26.25C8.75 26.4158 8.81585 26.5748 8.93306 26.692C9.05027 26.8092 9.20924 26.875 9.375 26.875C9.54076 26.875 9.69973 26.8092 9.81694 26.692C9.93415 26.5748 10 26.4158 10 26.25C10 24.3594 7.07164 20.6508 6.73773 20.2344C6.67917 20.1613 6.60494 20.1024 6.52052 20.0618C6.4361 20.0213 6.34365 20.0002 6.25 20.0002C6.15635 20.0002 6.0639 20.0213 5.97948 20.0618C5.89506 20.1024 5.82083 20.1613 5.76227 20.2344C5.42836 20.6508 2.5 24.3594 2.5 26.25C2.5 29.696 6.875 30.8839 6.875 29.375Z" fill="#219653"/>
<path d="M14.375 38.75H12.5V10.7981L15.6328 5.57742L18.7764 10.7987V16.875C18.7764 17.0408 18.8423 17.1997 18.9595 17.3169C19.0767 17.4342 19.2356 17.5 19.4014 17.5C19.5672 17.5 19.7261 17.4342 19.8433 17.3169C19.9606 17.1997 20.0264 17.0408 20.0264 16.875V10.625C20.0264 10.3069 20.0565 10.5617 16.2504 4.17969V0.625C16.2504 0.45924 16.1845 0.300269 16.0673 0.183058C15.9501 0.065848 15.7912 0 15.6254 0L4.375 0C4.20924 0 4.05027 0.065848 3.93306 0.183058C3.81585 0.300269 3.75 0.45924 3.75 0.625V4.20195L3.25 5.03555C3.20675 5.10595 3.17788 5.18424 3.16508 5.26588C3.15228 5.34751 3.15579 5.43088 3.17542 5.51114C3.19504 5.59141 3.23039 5.66699 3.27941 5.73351C3.32844 5.80003 3.39017 5.85617 3.46103 5.89867C3.53189 5.94118 3.61048 5.96921 3.69225 5.98115C3.77401 5.99309 3.85733 5.98869 3.93739 5.96822C4.01745 5.94774 4.09265 5.9116 4.15865 5.86187C4.22464 5.81214 4.28012 5.74982 4.32188 5.67852L4.72891 5H14.5212L11.5212 10H9.375C9.20924 10 9.05027 10.0658 8.93306 10.1831C8.81585 10.3003 8.75 10.4592 8.75 10.625C8.75 10.7908 8.81585 10.9497 8.93306 11.0669C9.05027 11.1842 9.20924 11.25 9.375 11.25H11.25V16.25H1.25V11.25H6.875C7.04076 11.25 7.19973 11.1842 7.31694 11.0669C7.43415 10.9497 7.5 10.7908 7.5 10.625C7.5 10.4592 7.43415 10.3003 7.31694 10.1831C7.19973 10.0658 7.04076 10 6.875 10H1.72875L1.75 9.96445C1.83318 9.8224 1.85696 9.65327 1.81617 9.49379C1.77538 9.3343 1.67333 9.19735 1.53216 9.11268C1.391 9.028 1.22212 9.00243 1.06222 9.04153C0.902317 9.08062 0.764293 9.18122 0.678125 9.32148C0.0582032 10.356 0 10.3944 0 10.625V39.375C0 39.5408 0.065848 39.6997 0.183058 39.8169C0.300269 39.9342 0.45924 40 0.625 40H14.375C14.5408 40 14.6997 39.9342 14.8169 39.8169C14.9342 39.6997 15 39.5408 15 39.375C15 39.2092 14.9342 39.0503 14.8169 38.9331C14.6997 38.8158 14.5408 38.75 14.375 38.75ZM5 3.75V1.25H15V3.75H5ZM11.25 38.75H1.25V33.75H11.25V38.75ZM11.25 32.5H1.25V17.5H11.25V32.5Z" fill="#219653"/>
<path d="M2.5 8.125C2.84518 8.125 3.125 7.84518 3.125 7.5C3.125 7.15482 2.84518 6.875 2.5 6.875C2.15482 6.875 1.875 7.15482 1.875 7.5C1.875 7.84518 2.15482 8.125 2.5 8.125Z" fill="#219653"/>
<path d="M8.75 29.375C9.09518 29.375 9.375 29.0952 9.375 28.75C9.375 28.4048 9.09518 28.125 8.75 28.125C8.40482 28.125 8.125 28.4048 8.125 28.75C8.125 29.0952 8.40482 29.375 8.75 29.375Z" fill="#219653"/>
<path d="M34.375 18.75C34.7202 18.75 35 18.4702 35 18.125C35 17.7798 34.7202 17.5 34.375 17.5C34.0298 17.5 33.75 17.7798 33.75 18.125C33.75 18.4702 34.0298 18.75 34.375 18.75Z" fill="#219653"/>
<path d="M37.5 32.5C37.8452 32.5 38.125 32.2202 38.125 31.875C38.125 31.5298 37.8452 31.25 37.5 31.25C37.1548 31.25 36.875 31.5298 36.875 31.875C36.875 32.2202 37.1548 32.5 37.5 32.5Z" fill="#219653"/>
<path d="M34.375 20C34.2092 20 34.0503 20.0658 33.9331 20.1831C33.8158 20.3003 33.75 20.4592 33.75 20.625V23.125C33.75 23.2908 33.8158 23.4497 33.9331 23.5669C34.0503 23.6842 34.2092 23.75 34.375 23.75C34.5408 23.75 34.6997 23.6842 34.8169 23.5669C34.9342 23.4497 35 23.2908 35 23.125V20.625C35 20.4592 34.9342 20.3003 34.8169 20.1831C34.6997 20.0658 34.5408 20 34.375 20Z" fill="#219653"/>
</g>
<defs>
<clipPath id="clip0">
<rect width="40" height="40" fill="white"/>
</clipPath>
</defs>
</svg>
