<svg width="40" height="40" viewBox="0 0 40 40" fill="none" xmlns="http://www.w3.org/2000/svg">
<path d="M37.4194 9.03226V0H25.1613C23.2078 0 21.331 0.820628 20 2.22719C18.669 0.820628 16.7921 0 14.8387 0H2.58065V9.03226H0V37.4194H15.5355C16.4516 38.9995 18.1606 40 20 40C21.8394 40 23.5484 38.9995 24.4645 37.4194H40V9.03226H37.4194ZM3.87097 1.29032H14.8387C16.5896 1.29032 18.2586 2.10181 19.3548 3.4605V17.4194H20.6452V3.4605C21.7414 2.10181 23.4104 1.29032 25.1613 1.29032H36.129V28.3871H33.424C28.5742 28.3871 23.9929 30.3361 20.6452 33.7793V18.7097H19.3548V33.7793C16.0077 30.3361 11.427 28.3871 6.57605 28.3871H3.87097V1.29032ZM5.16129 29.6774H6.57605C10.5768 29.6774 14.3781 31.1076 17.3541 33.669C14.6966 32.7419 11.8819 32.2581 9.06849 32.2581H5.16129V29.6774ZM34.8387 29.6774V32.2581H30.9315C28.1181 32.2581 25.3018 32.7419 22.6446 33.6697C25.6212 31.1076 29.4238 29.6774 33.424 29.6774H34.8387ZM38.7097 36.129H23.6684L23.4936 36.4967C22.8541 37.8412 21.4825 38.7097 20 38.7097C18.5175 38.7097 17.1459 37.8412 16.5071 36.4967L16.3316 36.129H1.29032V10.3226H2.58065V29.6774H3.87097V33.5484H9.06849C12.7445 33.5484 16.4245 34.4175 19.7118 36.0613L20 36.2053L20.2882 36.0607C23.5755 34.4175 27.2555 33.5484 30.9315 33.5484H36.129V29.6774H37.4194V10.3226H38.7097V36.129Z" fill="#219653"/>
<path d="M9.36715 24.726C9.63744 25.7419 10.5614 26.4516 11.6129 26.4516C12.6645 26.4516 13.5884 25.7419 13.8587 24.726L15.9763 16.7852L15.9769 16.7846C16.078 16.4044 16.1291 16.0128 16.1291 15.6219V15.4839C16.1291 13.7084 15.0967 12.1743 13.6039 11.4362L14.4749 7.51609C14.6025 6.93992 14.4639 6.34516 14.095 5.88523C13.7258 5.4253 13.1748 5.16131 12.5851 5.16131H12.2581V5.11154C12.2581 4.07229 11.4116 3.22583 10.3724 3.22583C9.8485 3.22583 9.34384 3.44571 8.98787 3.83035C8.63221 4.21436 8.45107 4.73415 8.49108 5.25614L8.99543 11.8104C7.84844 12.6304 7.0968 13.9696 7.0968 15.4839V15.6219C7.0968 16.0128 7.14783 16.4044 7.24896 16.7859L9.36715 24.726ZM14.8387 15.4839V15.6219C14.8387 15.9013 14.8019 16.1813 14.7304 16.4529L12.6128 24.3936C12.4915 24.846 12.0814 25.1613 11.6129 25.1613C11.1445 25.1613 10.7343 24.846 10.6131 24.3936L9.78581 21.2903H11.6129V20H9.44181L9.09812 18.7097H10.3226V17.4194H8.75349L8.49612 16.4535C8.46777 16.3464 8.44918 16.2374 8.43217 16.1291H11.6129V14.8387H8.45233C8.75223 13.3685 10.0548 12.2581 11.6129 12.2581C13.3915 12.2581 14.8387 13.7053 14.8387 15.4839ZM12.5851 6.45164C12.782 6.45164 12.9653 6.53953 13.0879 6.69294C13.211 6.84636 13.2573 7.0445 13.2142 7.23667L12.3696 11.0361C12.3324 11.0298 12.2949 11.0245 12.2575 11.0188V6.45164H12.5851ZM9.77794 5.15753C9.76534 4.99026 9.82078 4.83023 9.93482 4.70705C10.0492 4.58388 10.2038 4.51615 10.3724 4.51615C10.7006 4.51615 10.9678 4.78329 10.9678 5.11154V11.0194C10.7195 11.0557 10.4754 11.107 10.242 11.182L9.77794 5.15753Z" fill="#219653"/>
<path d="M24.52 24.3315C25.5872 25.2851 26.973 25.8058 28.4007 25.8052C28.6199 25.8052 28.8401 25.7929 29.06 25.7683C31.6722 25.4735 33.8112 23.3685 34.1451 20.7633C34.4812 18.1329 33.0091 15.6052 30.5646 14.6154L30.0807 15.8115C31.9818 16.5814 33.1272 18.5503 32.8645 20.5995C32.6059 22.6226 30.9438 24.2569 28.9148 24.4853C27.6065 24.6381 26.3502 24.2361 25.3793 23.3685C24.4214 22.5129 23.871 21.2847 23.871 20C23.871 17.8484 25.4001 15.9851 27.5073 15.5689C28.3909 15.3947 29.0323 14.6006 29.0323 13.6807V13.5484H29.6775C31.4561 13.5484 32.9033 12.1012 32.9033 10.3226V9.67743H30.9678C30.2388 9.67743 29.5729 9.92976 29.0323 10.3393V7.74194H27.742V13.6813C27.742 13.9866 27.5388 14.2484 27.2575 14.3038C24.5477 14.8381 22.5807 17.2335 22.5807 20C22.5807 21.6517 23.2879 23.2302 24.52 24.3315ZM30.9678 10.9677H31.5027C31.2362 11.7188 30.5189 12.2581 29.6775 12.2581H29.1426C29.4091 11.5071 30.1264 10.9677 30.9678 10.9677Z" fill="#219653"/>
<path d="M28.3871 18.0645C29.4541 18.0645 30.3226 18.933 30.3226 20H31.6129C31.6129 18.2214 30.1657 16.7742 28.3871 16.7742V18.0645Z" fill="#219653"/>
<path d="M29.6774 2.58057H34.8387V3.87089H29.6774V2.58057Z" fill="#219653"/>
<path d="M29.6774 5.16138H34.8387V6.4517H29.6774V5.16138Z" fill="#219653"/>
</svg>
