<svg width="40" height="40" viewBox="0 0 40 40" fill="none" xmlns="http://www.w3.org/2000/svg">
<path d="M9.33336 26.3335C7.12734 26.3335 5.33336 28.1275 5.33336 30.3335C5.33336 32.5395 7.12734 34.3335 9.33336 34.3335C11.5394 34.3335 13.3334 32.5395 13.3334 30.3335C13.3334 28.1275 11.5393 26.3335 9.33336 26.3335ZM9.33336 33.0001C7.86266 33.0001 6.66672 31.8041 6.66672 30.3335C6.66672 28.8628 7.86273 27.6669 9.33336 27.6669C10.804 27.6669 12 28.8629 12 30.3335C12 31.8041 10.804 33.0001 9.33336 33.0001Z" fill="#219653"/>
<path d="M32 26.3335C29.794 26.3335 28 28.1275 28 30.3335C28 32.5395 29.794 34.3335 32 34.3335C34.206 34.3335 36 32.5395 36 30.3335C36 28.1275 34.206 26.3335 32 26.3335ZM32 33.0001C30.5293 33.0001 29.3333 31.8041 29.3333 30.3335C29.3333 28.8628 30.5293 27.6669 32 27.6669C33.4707 27.6669 34.6666 28.8629 34.6666 30.3335C34.6666 31.8041 33.4707 33.0001 32 33.0001Z" fill="#219653"/>
<path d="M39.894 22.6394L33.894 13.306C33.7714 13.1153 33.56 13 33.3333 13H26C25.6314 13 25.3334 13.2987 25.3334 13.6666V30.3333C25.3334 30.702 25.6314 30.9999 26 30.9999H28.6667V29.6666H26.6667V14.3334H32.9693L38.6667 23.196V29.6667H35.3333V31H39.3333C39.702 31 40 30.702 40 30.3334V23C40 22.8727 39.9634 22.7466 39.894 22.6394Z" fill="#219653"/>
<path d="M29.3334 21.6668V17.0001H34.6667V15.6667H28.6667C28.298 15.6667 28.0001 15.9654 28.0001 16.3334V22.3334C28.0001 22.7021 28.298 23 28.6667 23H38.6667V21.6667H29.3334V21.6668Z" fill="#219653"/>
<path d="M26 8.33325H0.666641C0.298672 8.33325 0 8.63192 0 8.99989V30.3333C0 30.7019 0.298672 30.9999 0.666641 30.9999H6V29.6665H1.33336V9.66653H25.3334V29.6665H12.6666V30.9999H26C26.3687 30.9999 26.6666 30.7019 26.6666 30.3333V8.99989C26.6666 8.63192 26.3687 8.33325 26 8.33325Z" fill="#219653"/>
<path d="M4.66666 27H0.666656V28.3334H4.66666V27Z" fill="#219653"/>
<path d="M25.3333 27H14V28.3334H25.3333V27Z" fill="#219653"/>
<path d="M39.3333 27H36.6666V28.3334H39.3333V27Z" fill="#219653"/>
<path d="M26 11H2.66664V12.3334H26V11Z" fill="#219653"/>
<path d="M10 29.6667H8.66666V31.0001H10V29.6667Z" fill="#219653"/>
<path d="M32.6667 29.6667H31.3333V31.0001H32.6667V29.6667Z" fill="#219653"/>
<path d="M12 5.66675H2.66664V7.00011H12V5.66675Z" fill="#219653"/>
<path d="M1.33336 5.66675H0V7.00011H1.33336V5.66675Z" fill="#219653"/>
</svg>
